# xmcd CD database file
#
# Track frame offsets:
#	150
#	5831
#	17313
#	25237
#	32163
#	49849
#	68290
#	86232
#	98199
#	112254
#	128949
#	151126
#	167915
#	180498
#	190509
#	204390
#	220933
#	247192
#	262309
#
# Disc length: 3716 seconds
#
# Revision: 0
# Processed by: cddbd v1.5.2PL0 Copyright (c) Steve Scherf et al.
# Submitted via: CDex 1.70beta2
#
DISCID=080e8213
DTITLE=Borealis Brass - Roman Holidays
DYEAR=2009
DGENRE=Jazz
TTITLE0=Fanfare
TTITLE1=Variation on Antioch
TTITLE2=A Cold Coming We Had of It
TTITLE3=Holy Day of Joy
TTITLE4=Mixterium
TTITLE5=Choral 1
TTITLE6=Choral 2
TTITLE7=Choral 3
TTITLE8=Hallelujah
TTITLE9=Canzoni di Natale 1
TTITLE10=Canzoni di Natale 2
TTITLE11=Canzoni di Natale 3
TTITLE12=He Can Open Doors
TTITLE13=Anyhow
TTITLE14=Go Tell It on the Mountain
TTITLE15=All Hail the Power of Jesus Name
TTITLE16=Nobody Knows the Trouble I've Seen
TTITLE17=Shall We Gather at the River
TTITLE18=Toccata
EXTD=YEAR: 2009
EXTT0=
EXTT1=
EXTT2=
EXTT3=
EXTT4=
EXTT5=
EXTT6=
EXTT7=
EXTT8=
EXTT9=
EXTT10=
EXTT11=
EXTT12=
EXTT13=
EXTT14=
EXTT15=
EXTT16=
EXTT17=
EXTT18=
PLAYORDER=
